<?xml version="1.0" encoding="UTF-8" standalone="no"?>
<!DOCTYPE svg PUBLIC "-//W3C//DTD SVG 1.1//EN" "http://www.w3.org/Graphics/SVG/1.1/DTD/svg11.dtd">
<svg viewBox="0 0 1180 1120" version="1.1" xmlns="http://www.w3.org/2000/svg">
	<g id="Cheesehead">
		<title>Cheesehead, by Adam Stanislav</title>
		<path d="m901.372 16.584h190.383v76.232c-0.581-0.047-1.167-0.07-1.755-0.07-29.407 0-53.281 58.441-53.281 130.424 0 71.983 23.874 130.424 53.281 130.424 0.588 0 1.174-0.024 1.755-0.07s167.252 555.476 0 666.571c-167.251 111.095-836.259 111.095-1003.51 0-167.252-111.095 0-666.571 0-666.571 0.581 0.046 1.167 0.07 1.755 0.07 29.407 0 53.281-58.441 53.281-130.424 0-71.983-23.874-130.424-53.281-130.424-0.588 0-1.174 0.023-1.755 0.07v-76.232h151.157c-18.913 1.774-31.194 4.628-31.194 7.845 0 5.375 34.296 9.74 76.538 9.74-36.583 2.688-49.136 8.649-28.015 13.305 21.121 4.655 67.969 6.253 104.552 3.565-21.121 4.655-8.568 10.617 28.015 13.305 36.583 2.687 83.431 1.09 104.552-3.565 0 5.375 34.295 9.739 76.537 9.739 42.243 0 76.538-4.364 76.538-9.739 21.121 4.655 67.969 6.252 104.552 3.565 36.583-2.688 49.136-8.65 28.015-13.305 36.582 2.688 83.431 1.09 104.552-3.565 21.121-4.656 8.568-10.617-28.015-13.305 42.242 0 76.538-4.365 76.538-9.74 0-3.217-12.281-6.071-31.195-7.845zm-242.785 796.464c0.602 0.964 1.059 1.94 1.369 2.924l13.492 0.769c0.31 1.548 0.31 3.102 0 4.65l-13.492 0.769c-0.469 1.488-1.275 2.96-2.411 4.4l11.654 2.584c-1.346 1.473-2.984 2.909-4.903 4.296l-13.276-1.163c-2.002 1.31-4.299 2.557-6.866 3.73l8.042 4.006c-2.797 1.175-5.824 2.274-9.06 3.288l-11.038-2.918c-3.231 0.931-6.668 1.765-10.276 2.492l3.206 4.818c-3.822 0.697-7.778 1.292-11.838 1.78l-7.12-4.23c-3.967 0.412-8.022 0.705-12.121 0.875l-2.119 4.897c-4.265 0.113-8.547 0.113-12.812 0l-2.119-4.897c-4.1-0.17-8.154-0.463-12.122-0.875l-7.12 4.23c-4.059-0.488-8.015-1.083-11.837-1.78l3.206-4.818c-3.609-0.727-7.046-1.561-10.277-2.492l-11.038 2.918c-3.235-1.014-6.263-2.113-9.059-3.288l8.042-4.006c-2.568-1.173-4.865-2.42-6.867-3.73l-13.275 1.163c-1.919-1.387-3.558-2.823-4.903-4.296l11.654-2.584c-1.136-1.44-1.943-2.912-2.411-4.4l-13.492-0.769c-0.311-1.548-0.311-3.102 0-4.65l13.492-0.769c0.227-0.722 0.534-1.44 0.919-2.152-16.757 1.447-32.571 3.345-47.171 5.631-3.768 12.808-15.619 22.169-29.64 22.169-9.293 0-17.633-4.113-23.298-10.616-29.213 8.824-46.593 19.875-46.593 31.863 0 22.541 61.45 41.771 147.487 49.115 3.024-9.491 11.917-16.373 22.404-16.373 11.445 0 20.99 8.196 23.082 19.034 10.424 0.346 21.082 0.524 31.918 0.524 10.836 0 21.494-0.178 31.918-0.524 2.092-10.838 11.637-19.034 23.082-19.034 10.487 0 19.38 6.882 22.404 16.373 86.037-7.344 147.487-26.574 147.487-49.115 0-11.988-17.38-23.039-46.593-31.863-5.665 6.503-14.005 10.616-23.298 10.616-14.021 0-25.872-9.361-29.64-22.169-17.363-2.719-36.441-4.889-56.773-6.403zm-113.587-207.76c12.268 0 22.228 9.96 22.228 22.228 0 12.268-9.96 22.228-22.228 22.228-12.268 0-22.228-9.96-22.228-22.228 0-12.268 9.96-22.228 22.228-22.228zm90 0c12.268 0 22.228 9.96 22.228 22.228 0 12.268-9.96 22.228-22.228 22.228-12.268 0-22.228-9.96-22.228-22.228 0-12.268 9.96-22.228 22.228-22.228zm-338.587-113.418c-33.295-14.812-56.534-48.192-56.534-86.957 0-52.499 42.622-95.121 95.121-95.121 52.499 0 95.121 42.622 95.121 95.121 0 38.765-23.239 72.145-56.534 86.957 1.784-4.618 2.763-9.636 2.763-14.881 0-22.821-18.528-41.349-41.35-41.349-22.822 0-41.35 18.528-41.35 41.349 0 5.245 0.979 10.263 2.763 14.881zm510 0c-33.295-14.812-56.534-48.192-56.534-86.957 0-52.499 42.622-95.121 95.121-95.121 52.499 0 95.121 42.622 95.121 95.121 0 38.765-23.239 72.145-56.534 86.957 1.784-4.618 2.763-9.636 2.763-14.881 0-22.821-18.528-41.349-41.35-41.349-22.822 0-41.35 18.528-41.35 41.349 0 5.245 0.979 10.263 2.763 14.881z" fill="#ebb810" fill-rule="evenodd"/>
	</g>
</svg>
